# xmcd
#
# Track frame offsets:
#	150
#	22542
#	44891
#	90855
#	141331
#	184071
#
# Disc length: 2946 seconds
#
# Revision: 1
# Processed by: cddbd v1.5.1PL2 Copyright (c) Steve Scherf et al.
# Submitted via: EasyCDDAExtractor 9.0.0.1
#
DISCID=440b8006
DTITLE=Blue Oyster Cult - Taste Of Music Festival Denver 01-09-00 Disc 2
DYEAR=2000
DGENRE=Hard Rock
TTITLE0=Take Me Away
TTITLE1=The Old Gods Return
TTITLE2=Astronomy
TTITLE3=Godzilla
TTITLE4=(Don't Fear) The Reaper
TTITLE5=Dominance And Submission
EXTD=
EXTT0=
EXTT1=
EXTT2=
EXTT3=
EXTT4=
EXTT5=
PLAYORDER=
